<?xml version="1.0" encoding="UTF-8"?>
<svg id="Layer_2" data-name="Layer 2" xmlns="http://www.w3.org/2000/svg" viewBox="0 0 1003.48 226.38">
  <defs>
    <style>
      .cls-1 {
        fill: #fff;
        stroke-width: 0px;
      }
    </style>
  </defs>
  <g id="Layer_2-2">
    <g id="Layer_1-2">
      <g>
        <g>
          <path class="cls-1" d="M305.32,163.31h80.74v24.98h-117.83v-27.5l78.22-81.25h-74.94v-24.98h112.53v27.51l-78.72,81.24h0Z"/>
          <path class="cls-1" d="M415.58,84.59c5.55-10.6,13.29-18.75,23.21-24.47,9.92-5.72,21.53-8.58,34.82-8.58,11.61,0,22.2,2.65,31.79,7.95s17.12,13.29,22.58,23.97c5.47,10.68,8.28,23.68,8.45,38.98v7.57h-95.12c.67,11.27,3.82,20.06,9.46,26.37,5.64,6.31,13.25,9.46,22.84,9.46,6.05,0,11.61-1.68,16.65-5.05,5.05-3.36,8.83-7.82,11.35-13.37l33.05,2.27c-4.03,12.79-11.6,22.92-22.71,30.41-11.1,7.49-23.89,11.23-38.35,11.23-13.29,0-24.9-2.86-34.82-8.58s-17.66-13.88-23.21-24.48c-5.55-10.6-8.33-22.87-8.33-36.84s2.78-26.24,8.33-36.84h.01ZM493.29,84.84c-5.38-5.21-11.95-7.82-19.68-7.82-8.92,0-16.15,2.78-21.7,8.33s-9,13.37-10.34,23.46h61.82c-1.35-10.76-4.71-18.75-10.1-23.97Z"/>
          <path class="cls-1" d="M591.95,54.56l1.26,37.6-4.04-2.27c2.02-13.28,6.94-23,14.76-29.14s17.53-9.21,29.14-9.21c14.47,0,25.74,4.58,33.81,13.75s12.11,21.49,12.11,36.97v86.04h-32.3v-75.7c0-11.77-1.77-20.52-5.3-26.24-3.53-5.71-9.59-8.58-18.17-8.58s-15.85,2.99-20.82,8.96c-4.96,5.97-7.44,14.59-7.44,25.86v75.7h-32.3V54.56h29.29Z"/>
          <path class="cls-1" d="M739.3,54.56l1.26,37.6-4.04-2.27c2.02-13.28,6.94-23,14.76-29.14s17.53-9.21,29.14-9.21c14.47,0,25.74,4.58,33.81,13.75s12.11,21.49,12.11,36.97v86.04h-32.3v-75.7c0-11.77-1.77-20.52-5.3-26.24-3.53-5.71-9.59-8.58-18.17-8.58s-15.85,2.99-20.82,8.96c-4.96,5.97-7.44,14.59-7.44,25.86v75.7h-32.3V54.56h29.29Z"/>
          <path class="cls-1" d="M894.98,9.14v27h-33.81V9.14h33.81ZM893.97,54.56v133.73h-32.3V54.56h32.3Z"/>
          <path class="cls-1" d="M1003.48,54.56v24.73h-88.81v-24.73h88.81ZM968.15,24.28v123.13c0,5.05,1.3,8.96,3.91,11.73,2.61,2.78,6.35,4.16,11.23,4.16h19.93v24.98h-25.23c-13.8,0-24.27-3.45-31.42-10.34-7.15-6.9-10.72-17.07-10.72-30.53V24.28h32.3Z"/>
        </g>
        <g>
          <path class="cls-1" d="M70.11,131.01c-21.09-13.43-46.99-16.27-70.11-8.5,1.97,24.36,11.64,46.51,26.56,64.08,21.84-10.85,38.15-31.17,43.55-55.58Z"/>
          <path class="cls-1" d="M39.78,199.81c17.58,14.92,39.73,24.59,64.08,26.56,7.77-23.12,4.93-49.02-8.5-70.11-24.41,5.4-44.73,21.7-55.58,43.55Z"/>
          <path class="cls-1" d="M131.01,156.27c-13.43,21.11-16.27,46.99-8.5,70.11,24.36-1.97,46.5-11.64,64.08-26.56-10.85-21.84-31.17-38.15-55.58-43.55Z"/>
          <path class="cls-1" d="M156.27,131.01c5.4,24.41,21.7,44.73,43.55,55.58,14.92-17.58,24.59-39.73,26.56-64.08-23.12-7.77-49.02-4.93-70.11,8.5Z"/>
          <path class="cls-1" d="M156.27,95.36c21.09,13.43,46.99,16.27,70.11,8.5-1.97-24.36-11.64-46.5-26.56-64.08-21.84,10.85-38.15,31.17-43.55,55.58Z"/>
          <path class="cls-1" d="M186.61,26.56C169.04,11.66,146.89,1.99,122.53,0c-7.78,23.12-4.95,49.02,8.5,70.12,24.41-5.42,44.73-21.74,55.58-43.56Z"/>
          <path class="cls-1" d="M95.34,70.12c13.45-21.11,16.28-47.01,8.5-70.12-24.36,1.99-46.5,11.66-64.08,26.56,10.85,21.83,31.17,38.15,55.58,43.56Z"/>
          <path class="cls-1" d="M70.11,95.36c-5.4-24.41-21.7-44.73-43.55-55.58C11.64,57.36,1.97,79.5,0,103.86c23.12,7.77,49.02,4.93,70.11-8.5Z"/>
        </g>
      </g>
    </g>
  </g>
</svg>